<svg width="53" height="53" viewBox="0 0 53 53" fill="none" xmlns="http://www.w3.org/2000/svg">
<path d="M26.5 0C41.1355 0 53 11.8645 53 26.5C53 41.1355 41.1355 53 26.5 53C11.8645 53 0 41.1355 0 26.5C0 11.8645 11.8645 0 26.5 0ZM43.9365 15.709C42.6713 14.6395 40.7786 14.7983 39.709 16.0635L23.1123 35.6924L13.0137 26.5518C11.7853 25.4399 9.88729 25.5343 8.77539 26.7627C7.66397 27.991 7.75818 29.8882 8.98633 31L19.8525 40.8359C21.9488 42.7335 25.2006 42.5165 27.0264 40.3574L44.291 19.9365C45.3605 18.6713 45.2017 16.7786 43.9365 15.709Z" fill="#26BF1B"/>
</svg>
