<svg width="23" height="22" viewBox="0 0 23 22" fill="none" xmlns="http://www.w3.org/2000/svg">
<path d="M2.71655 6.15741L7.06301 6.15741H11.4547H15.8465L20.2835 6.15741V19.1968H2.71655V6.15741Z" fill="#BF7F4E"/>
<path d="M0 6.51962C0 6.01952 0.405411 5.61411 0.905512 5.61411H1.81102C2.31112 5.61411 2.71654 6.01952 2.71654 6.51962V19.1968H0V6.51962Z" fill="#E7B875"/>
<path d="M20.2834 6.51962C20.2834 6.01952 20.6889 5.61411 21.189 5.61411H21.9134C22.4135 5.61411 22.8189 6.01952 22.8189 6.51962V19.1968H20.2834V6.51962Z" fill="#E7B875"/>
<path d="M0 19.1968H22.8189V20.1023C22.8189 21.1025 22.0081 21.9133 21.0079 21.9133H1.81102C0.810821 21.9133 0 21.1025 0 20.1023V19.1968Z" fill="#E7B875"/>
<rect x="0.181152" y="9.41727" width="22.6378" height="2.71654" fill="#E7B875"/>
<rect x="8.69287" y="7.96844" width="5.61417" height="5.61417" rx="2.71654" fill="#E7B875"/>
<circle cx="11.5" cy="10.2322" r="0.996063" fill="#D68E55"/>
<rect x="11.0474" y="10.8661" width="0.905512" height="1.44882" fill="#D68E55"/>
<path d="M0 3.62205C0 1.62164 1.62165 0 3.62205 0H19.378C21.3784 0 23 1.62165 23 3.62205V6.15748H0V3.62205Z" fill="#AC7041"/>
</svg>
